<svg xmlns="http://www.w3.org/2000/svg" xmlns:xlink="http://www.w3.org/1999/xlink" version="1.0" viewBox="0 0 728.81 494.59"><g transform="translate(-218.65 -119.5)scale(1.1457)"><path d="M191.46 104.93h634.85v430.43H191.46z" style="fill-rule:evenodd;stroke:#000;stroke-width:1pt;fill:#009"/><path id="a" d="m507.83 186.28-13.81-10.36-14.41 10.29 5.59-16.33-14.23-10.53 17.25.27 5.61-16.79 5.09 16.49 17.7.15-14.12 9.93z" style="stroke-opacity:.20886;fill-rule:evenodd;stroke:#e6f32e;stroke-width:1pt;fill:#fc0" transform="translate(153.72 151.39)"/><use xlink:href="#a" id="b" width="1052.362" height="744.094" x="0" y="0" transform="translate(-18.714 -69.819)"/><use xlink:href="#b" id="c" width="1052.362" height="744.094" x="0" y="0" transform="translate(-49.665 -50.385)"/><use xlink:href="#c" id="d" width="1052.362" height="744.094" x="0" y="0" transform="translate(-69.819 -19.434)"/><use xlink:href="#d" id="e" width="1052.362" height="744.094" x="0" y="0" transform="translate(-69.099 18.714)"/><use xlink:href="#e" id="f" width="1052.362" height="744.094" x="0" y="0" transform="translate(-51.824 50.385)"/><use xlink:href="#f" id="g" width="1052.362" height="744.094" x="0" y="0" transform="translate(-18.714 69.819)"/><use xlink:href="#g" id="h" width="1052.362" height="744.094" x="0" y="0" transform="translate(18.714 71.259)"/><use xlink:href="#h" id="i" width="1052.362" height="744.094" x="0" y="0" transform="translate(50.385 51.824)"/><use xlink:href="#i" id="j" width="1052.362" height="744.094" x="0" y="0" transform="translate(69.819 18.714)"/><use xlink:href="#j" id="k" width="1052.362" height="744.094" x="0" y="0" transform="translate(69.819 -18.714)"/><use xlink:href="#k" width="1052.362" height="744.094" transform="translate(51.824 -51.824)"/></g></svg>